<svg width="69" height="69" viewBox="0 0 69 69" fill="none" xmlns="http://www.w3.org/2000/svg">
<g clip-path="url(#clip0_62_2749)" filter="url(#filter0_dd_62_2749)">
<path d="M60.4201 52.7476C59.9677 56.1095 57.7053 59.0185 54.5379 60.3113C52.9864 60.957 51.3059 61.1516 49.625 60.957C48.0092 60.7634 46.3929 60.2462 44.7125 59.2775C42.3851 57.9833 40.058 55.9803 37.3433 53.0066C41.6098 47.7706 44.1947 42.987 45.1648 38.7214C45.6174 36.7173 45.6818 34.9072 45.4883 33.2262C45.23 31.6105 44.648 30.1231 43.7426 28.8305C41.7387 25.922 38.3778 24.241 34.6285 24.241C30.8792 24.241 27.518 25.9866 25.5141 28.8305C24.6087 30.1234 24.0277 31.6105 23.7687 33.2262C23.5104 34.9072 23.5749 36.7817 24.0922 38.7216C25.0615 42.9868 27.7116 47.8353 31.9137 53.0703C29.2634 56.0448 26.8716 58.0484 24.5443 59.3415C22.8638 60.3113 21.2476 60.8286 19.6318 61.0217C17.9661 61.2078 16.2801 60.9862 14.719 60.376C11.5515 59.0832 9.28951 56.1732 8.8367 52.812C8.6431 51.1965 8.77224 49.5807 9.41865 47.7706C9.61224 47.1237 9.93591 46.4785 10.2586 45.7023C10.7115 44.6684 11.2287 43.5687 11.7453 42.4695L11.8104 42.3411C16.2701 32.709 21.054 22.8837 26.0314 13.3173L26.2252 12.9287C26.7425 11.96 27.259 10.9262 27.7768 9.95609C28.2936 8.92156 28.8753 7.95172 29.5861 7.11078C30.9436 5.55922 32.7537 4.71898 34.7576 4.71898C36.7615 4.71898 38.5714 5.55922 39.9289 7.11102C40.64 7.95172 41.2217 8.92156 41.739 9.95633C42.2562 10.9262 42.7728 11.96 43.2901 12.9287L43.4846 13.3173C48.3969 22.9482 53.1807 32.7734 57.6408 42.4055V42.4695C58.1581 43.5041 58.6102 44.6684 59.1275 45.7023C59.4509 46.4785 59.7739 47.1235 59.9675 47.7706C60.4847 49.4511 60.6786 51.0678 60.4203 52.7476H60.4201ZM34.6285 49.7091C31.1382 45.3141 28.8753 41.1767 28.0997 37.6871C27.777 36.2 27.7116 34.9072 27.9061 33.7435C28.0351 32.709 28.4234 31.8036 28.9397 31.0273C30.1681 29.2836 32.2365 28.1827 34.6285 28.1827C37.0203 28.1827 39.1533 29.218 40.3168 31.0273C40.8336 31.8036 41.2217 32.709 41.3508 33.7435C41.5447 34.9072 41.48 36.2645 41.157 37.6871C40.3815 41.1127 38.1188 45.2497 34.6285 49.7091ZM63.7815 46.3482C63.4585 45.5724 63.1351 44.7324 62.8121 44.0213C62.2948 42.8584 61.7776 41.7587 61.325 40.7241L61.2603 40.6602C56.8006 30.9634 52.0168 21.1381 46.9747 11.4434L46.7811 11.0544C46.2638 10.0848 45.7465 9.05023 45.23 8.01617C44.5831 6.85203 43.9365 5.62508 42.9026 4.4607C40.8333 1.87508 37.8605 0.453125 34.6927 0.453125C31.4607 0.453125 28.5521 1.87508 26.4186 4.33203C25.4494 5.49523 24.7383 6.72336 24.0919 7.88773C23.5747 8.92156 23.0574 9.95609 22.5404 10.9262L22.3465 11.3129C17.3696 21.009 12.5213 30.8349 8.06091 40.531L7.99646 40.6602C7.54365 41.694 7.02638 42.7925 6.50912 43.9569C6.16331 44.723 5.84012 45.4991 5.53998 46.2842C4.69927 48.6753 4.44099 50.9382 4.76396 53.2648C5.47552 58.1131 8.70755 62.1861 13.1677 63.9955C14.8479 64.707 16.5933 65.03 18.4036 65.03C18.9207 65.03 19.5671 64.9653 20.0844 64.9002C22.2172 64.6412 24.4149 63.9315 26.5477 62.7027C29.1985 61.216 31.7197 59.0832 34.5636 55.9803C37.4075 59.0832 39.9933 61.2162 42.579 62.7027C44.7125 63.9315 46.91 64.6412 49.043 64.9002C49.5603 64.9653 50.2067 65.03 50.7237 65.03C52.5338 65.03 54.3434 64.707 55.9597 63.9955C60.4845 62.1861 63.6519 58.0487 64.3629 53.2648C64.8802 51.0019 64.6212 48.7407 63.7812 46.348L63.7815 46.3482Z" fill="#E0565B"/>
</g>
<defs>
<filter id="filter0_dd_62_2749" x="0.629517" y="0.453125" width="68" height="72.6875" filterUnits="userSpaceOnUse" color-interpolation-filters="sRGB">
<feFlood flood-opacity="0" result="BackgroundImageFix"/>
<feColorMatrix in="SourceAlpha" type="matrix" values="0 0 0 0 0 0 0 0 0 0 0 0 0 0 0 0 0 0 127 0" result="hardAlpha"/>
<feOffset dy="4"/>
<feGaussianBlur stdDeviation="2"/>
<feComposite in2="hardAlpha" operator="out"/>
<feColorMatrix type="matrix" values="0 0 0 0 0 0 0 0 0 0 0 0 0 0 0 0 0 0 0.25 0"/>
<feBlend mode="normal" in2="BackgroundImageFix" result="effect1_dropShadow_62_2749"/>
<feColorMatrix in="SourceAlpha" type="matrix" values="0 0 0 0 0 0 0 0 0 0 0 0 0 0 0 0 0 0 127 0" result="hardAlpha"/>
<feOffset dy="4"/>
<feGaussianBlur stdDeviation="2"/>
<feComposite in2="hardAlpha" operator="out"/>
<feColorMatrix type="matrix" values="0 0 0 0 0 0 0 0 0 0 0 0 0 0 0 0 0 0 0.25 0"/>
<feBlend mode="normal" in2="effect1_dropShadow_62_2749" result="effect2_dropShadow_62_2749"/>
<feBlend mode="normal" in="SourceGraphic" in2="effect2_dropShadow_62_2749" result="shape"/>
</filter>
<clipPath id="clip0_62_2749">
<rect width="60" height="64.6875" fill="white" transform="translate(4.62952 0.453125)"/>
</clipPath>
</defs>
</svg>
