<svg width="69" height="72" viewBox="0 0 69 72" fill="none" xmlns="http://www.w3.org/2000/svg">
<g clip-path="url(#clip0_62_2739)" filter="url(#filter0_dd_62_2739)">
<path d="M22.8893 0.724704C22.5458 0.726916 22.2083 0.814634 21.9072 0.979939C20.9186 1.52791 20.5561 2.79799 21.1038 3.78588L23.3358 7.81619C17.9583 11.1431 14.395 16.8263 14.395 23.3126V24.5178C13.3622 23.3295 11.8441 22.5792 10.1479 22.5792C7.04013 22.5792 4.51685 25.1025 4.51685 28.2101V45.556C4.51685 48.6633 7.04036 51.1868 10.1479 51.1868C11.8441 51.1868 13.3622 50.4364 14.3948 49.2481V51.6778C14.3948 54.9537 17.0754 57.634 20.3512 57.634H21.8625V65.3503C21.8625 68.4581 24.386 70.9814 27.4936 70.9814C30.6011 70.9814 33.1244 68.4579 33.1244 65.3503V57.634H35.7391V65.3503C35.7391 68.4581 38.2626 70.9814 41.3702 70.9814C44.4778 70.9814 47.0011 68.4579 47.0011 65.3503V57.634H48.5125C51.7882 57.634 54.4687 54.9537 54.4687 51.6778V49.2481C55.5014 50.4364 57.0197 51.1868 58.7158 51.1868C61.8234 51.1868 64.3467 48.6633 64.3467 45.556V28.2101C64.3467 25.1025 61.8234 22.5792 58.7158 22.5792C57.0197 22.5792 55.5014 23.3295 54.4687 24.5178V23.5165V23.4591C54.4692 23.3981 54.4687 23.3494 54.4687 23.3126C54.4687 16.8274 50.8973 11.1499 45.5217 7.82275L47.76 3.78588C48.3075 2.79799 47.9451 1.52791 46.9565 0.979939C46.6555 0.814634 46.318 0.726916 45.9745 0.724704C45.2444 0.717673 44.5279 1.10252 44.1506 1.78338L41.8101 6.0115C39.5217 5.16705 37.0317 4.70416 34.432 4.70416C31.8347 4.70416 29.34 5.16213 27.0534 6.00494L24.7132 1.78338C24.3356 1.10252 23.6193 0.718142 22.8893 0.724704Z" fill="white"/>
<path d="M10.148 24.0459C7.82912 24.0459 5.98389 25.8911 5.98389 28.21V45.5559C5.98389 47.8748 7.82912 49.72 10.148 49.72C12.4669 49.72 14.3124 47.8748 14.3124 45.5559V28.21C14.3124 25.8911 12.4669 24.0459 10.148 24.0459ZM58.7162 24.0459C56.397 24.0459 54.5518 25.8911 54.5518 28.21V45.5559C54.5518 47.8748 56.397 49.72 58.7162 49.72C61.0351 49.72 62.8803 47.8748 62.8803 45.5559V28.21C62.8803 25.8911 61.0351 24.0459 58.7162 24.0459Z" fill="#A4C639"/>
<path d="M27.4938 43.8403C25.1749 43.8403 23.3295 45.6856 23.3295 48.0047V65.3503C23.3295 67.6692 25.1749 69.5145 27.4938 69.5145C29.8127 69.5145 31.658 67.6692 31.658 65.3503V48.0047C31.658 45.6856 29.8127 43.8403 27.4938 43.8403ZM41.3705 43.8403C39.0513 43.8403 37.2061 45.6856 37.2061 48.0047V65.3503C37.2061 67.6692 39.0513 69.5145 41.3705 69.5145C43.6894 69.5145 45.5346 67.6692 45.5346 65.3503V48.0047C45.5346 45.6856 43.6894 43.8403 41.3705 43.8403Z" fill="#A4C639"/>
<path d="M22.9019 2.19149C22.8034 2.19267 22.7068 2.21897 22.6213 2.26789C22.3244 2.43243 22.2269 2.77368 22.3916 3.07133L25.3253 8.37078C19.6815 11.3075 15.8692 16.8882 15.8617 23.2932H53.0019C52.9942 16.8882 49.1821 11.3073 43.5383 8.37078L46.4718 3.07157C46.6368 2.77391 46.539 2.43243 46.2421 2.26789C46.1566 2.21894 46.06 2.19264 45.9615 2.19149C45.7506 2.18914 45.5512 2.29461 45.4387 2.49758L42.4668 7.85422C40.0358 6.7761 37.3091 6.17071 34.4317 6.17071C31.5543 6.17071 28.8278 6.77586 26.3966 7.85422L23.4248 2.49758C23.3741 2.40355 23.2985 2.32527 23.2063 2.27128C23.1141 2.2173 23.0089 2.1897 22.9021 2.19149H22.9019ZM15.8617 24.7599V51.6779C15.8604 52.2678 15.9757 52.8521 16.2009 53.3974C16.426 53.9426 16.7567 54.438 17.1738 54.8552C17.591 55.2723 18.0864 55.6029 18.6316 55.828C19.1769 56.0532 19.7612 56.1684 20.3512 56.1671H48.5125C49.1024 56.1684 49.6868 56.0532 50.2321 55.828C50.7773 55.6028 51.2728 55.2722 51.6899 54.8551C52.107 54.4379 52.4377 53.9425 52.6628 53.3972C52.888 52.852 53.0032 52.2676 53.0019 51.6777V24.7602H15.8617V24.7599Z" fill="#A4C639"/>
<path d="M25.8608 13.396C25.0131 13.396 24.3112 14.0977 24.3112 14.9455C24.3112 15.7934 25.0131 16.4951 25.8608 16.4951C26.7088 16.4951 27.4105 15.7934 27.4105 14.9455C27.4105 14.0977 26.7088 13.396 25.8608 13.396ZM43.0026 13.396C42.1546 13.396 41.4529 14.0977 41.4529 14.9455C41.4529 15.7934 42.1546 16.4951 43.0026 16.4951C43.8503 16.4951 44.5522 15.7934 44.5522 14.9455C44.5522 14.0977 43.8503 13.396 43.0026 13.396Z" fill="white"/>
</g>
<defs>
<filter id="filter0_dd_62_2739" x="0.516846" y="0.523438" width="68" height="78.5469" filterUnits="userSpaceOnUse" color-interpolation-filters="sRGB">
<feFlood flood-opacity="0" result="BackgroundImageFix"/>
<feColorMatrix in="SourceAlpha" type="matrix" values="0 0 0 0 0 0 0 0 0 0 0 0 0 0 0 0 0 0 127 0" result="hardAlpha"/>
<feOffset dy="4"/>
<feGaussianBlur stdDeviation="2"/>
<feComposite in2="hardAlpha" operator="out"/>
<feColorMatrix type="matrix" values="0 0 0 0 0 0 0 0 0 0 0 0 0 0 0 0 0 0 0.25 0"/>
<feBlend mode="normal" in2="BackgroundImageFix" result="effect1_dropShadow_62_2739"/>
<feColorMatrix in="SourceAlpha" type="matrix" values="0 0 0 0 0 0 0 0 0 0 0 0 0 0 0 0 0 0 127 0" result="hardAlpha"/>
<feOffset dy="4"/>
<feGaussianBlur stdDeviation="2"/>
<feComposite in2="hardAlpha" operator="out"/>
<feColorMatrix type="matrix" values="0 0 0 0 0 0 0 0 0 0 0 0 0 0 0 0 0 0 0.25 0"/>
<feBlend mode="normal" in2="effect1_dropShadow_62_2739" result="effect2_dropShadow_62_2739"/>
<feBlend mode="normal" in="SourceGraphic" in2="effect2_dropShadow_62_2739" result="shape"/>
</filter>
<clipPath id="clip0_62_2739">
<rect width="60" height="70.5469" fill="white" transform="translate(4.51685 0.523438)"/>
</clipPath>
</defs>
</svg>
