<svg width="155" height="67" viewBox="0 0 155 67" fill="none" xmlns="http://www.w3.org/2000/svg">
<g clip-path="url(#clip0_62_2751)" filter="url(#filter0_dd_62_2751)">
<path d="M4.62952 0.796875V4.89795H33.7983V0.796875H4.62952ZM37.931 0.796875V4.89795H79.4978C79.4978 4.89795 75.2519 0.796875 69.6285 0.796875H37.931ZM87.652 0.796875V4.89795H112.799L111.307 0.796875H87.652ZM130.829 0.796875L129.336 4.89795H154.255V0.796875H130.829ZM4.62952 8.77248V12.8736H33.7983V8.77248H4.62952ZM37.931 8.77834V12.8736H84.3212C84.3212 12.8736 83.7795 9.71727 82.8344 8.77834H37.931ZM87.652 8.77834V12.8736H115.556L114.175 8.77834H87.652ZM127.843 8.77834L126.462 12.8736H154.255V8.77834H127.843ZM13.012 16.7481V20.8544H25.6442V16.7481H13.012ZM46.3134 16.7481V20.8544H58.9456V16.7481H46.3134ZM71.2324 16.7481V20.8544H83.8646C83.8646 20.8544 84.6666 18.6857 84.6666 16.7478H71.2324V16.7481ZM96.0344 16.7481V20.8544H118.43L116.938 16.7478H96.0344V16.7481ZM125.092 16.7481L123.593 20.8547H146.101V16.7481H125.092ZM13.012 24.7296V28.83H25.6442V24.7296H13.012ZM46.3134 24.7296V28.83H78.5788C78.5788 28.83 81.2779 26.7257 82.1378 24.729H46.3134V24.7296ZM96.0344 24.7296V28.83H108.667V26.5471L109.469 28.83H132.608L133.469 26.5471V28.83H146.101V24.7296H122.388L121.129 28.2034L119.865 24.7296H96.0344ZM13.012 32.7046V36.8057H25.6442V32.7046H13.012ZM46.3134 32.7046V36.8057H82.1378C81.2776 34.8154 78.5788 32.7046 78.5788 32.7046H46.3134ZM96.0344 32.7046V36.8057H108.667V32.7046H96.0344ZM110.961 32.7046L112.489 36.8057H129.839L131.291 32.7046H110.961ZM133.469 32.7046V36.8057H146.101V32.7046H133.469ZM13.012 40.6802V44.7813H25.6442V40.6802H13.012ZM46.3134 40.6802V44.7813H58.9456V40.6802H46.3134ZM71.2324 40.6802V44.7813H84.6666C84.6666 42.8458 83.8646 40.6802 83.8646 40.6802H71.2324ZM96.0344 40.6802V44.7813H108.667V40.6802H96.0344ZM113.83 40.6802L115.31 44.7813H126.942L128.434 40.6802H113.83ZM133.469 40.6802V44.7813H146.101V40.6802H133.469ZM4.85781 48.6561V52.7627H34.0266V48.6558H4.85781V48.6561ZM37.931 48.6561V52.7627H82.8344C83.7795 51.8223 84.3212 48.6558 84.3212 48.6558H37.931V48.6561ZM87.8802 48.6561V52.7627H108.667V48.6558H87.8802V48.6561ZM116.704 48.6561L118.226 52.7627H124.144L125.572 48.6558H116.704V48.6561ZM133.469 48.6561V52.7627H154.483V48.6558H133.469V48.6561ZM4.85781 56.6373V60.7383H34.0266V56.6373H4.85781ZM37.931 56.6373V60.7322H69.6285C75.2519 60.7322 79.4978 56.637 79.4978 56.637H37.931V56.6373ZM87.8802 56.6373V60.7383H108.667V56.6373H87.8802ZM119.59 56.6373L121.053 60.7263L121.305 60.7322L122.791 56.637H119.59V56.6373ZM133.469 56.6373V60.7383H154.483V56.6373H133.469Z" fill="#1F70C1"/>
</g>
<defs>
<filter id="filter0_dd_62_2751" x="0.629517" y="0.796875" width="157.854" height="68" filterUnits="userSpaceOnUse" color-interpolation-filters="sRGB">
<feFlood flood-opacity="0" result="BackgroundImageFix"/>
<feColorMatrix in="SourceAlpha" type="matrix" values="0 0 0 0 0 0 0 0 0 0 0 0 0 0 0 0 0 0 127 0" result="hardAlpha"/>
<feOffset dy="4"/>
<feGaussianBlur stdDeviation="2"/>
<feComposite in2="hardAlpha" operator="out"/>
<feColorMatrix type="matrix" values="0 0 0 0 0 0 0 0 0 0 0 0 0 0 0 0 0 0 0.25 0"/>
<feBlend mode="normal" in2="BackgroundImageFix" result="effect1_dropShadow_62_2751"/>
<feColorMatrix in="SourceAlpha" type="matrix" values="0 0 0 0 0 0 0 0 0 0 0 0 0 0 0 0 0 0 127 0" result="hardAlpha"/>
<feOffset dy="4"/>
<feGaussianBlur stdDeviation="2"/>
<feComposite in2="hardAlpha" operator="out"/>
<feColorMatrix type="matrix" values="0 0 0 0 0 0 0 0 0 0 0 0 0 0 0 0 0 0 0.25 0"/>
<feBlend mode="normal" in2="effect1_dropShadow_62_2751" result="effect2_dropShadow_62_2751"/>
<feBlend mode="normal" in="SourceGraphic" in2="effect2_dropShadow_62_2751" result="shape"/>
</filter>
<clipPath id="clip0_62_2751">
<rect width="149.854" height="60" fill="white" transform="translate(4.62952 0.796875)"/>
</clipPath>
</defs>
</svg>
